<?xml version="1.0" encoding="UTF-8"?>
<svg xmlns="http://www.w3.org/2000/svg" version="1.1" width="200" height="200" viewBox="0 0 200 200"><rect x="0" y="0" width="200" height="200" fill="#ffffff"/><g transform="scale(9.524)"><g transform="translate(0,0)"><path fill-rule="evenodd" d="M8 0L8 2L9 2L9 4L8 4L8 10L6 10L6 11L7 11L7 12L4 12L4 11L3 11L3 12L1 12L1 10L2 10L2 9L3 9L3 8L0 8L0 9L1 9L1 10L0 10L0 13L3 13L3 12L4 12L4 13L8 13L8 14L9 14L9 13L10 13L10 14L11 14L11 15L10 15L10 16L9 16L9 15L8 15L8 16L9 16L9 18L8 18L8 21L9 21L9 18L11 18L11 17L17 17L17 16L18 16L18 15L20 15L20 16L19 16L19 17L21 17L21 14L19 14L19 13L21 13L21 12L18 12L18 11L21 11L21 10L17 10L17 11L16 11L16 12L17 12L17 14L16 14L16 13L15 13L15 12L14 12L14 13L13 13L13 14L12 14L12 13L10 13L10 10L11 10L11 9L17 9L17 8L12 8L12 7L13 7L13 6L12 6L12 7L11 7L11 5L10 5L10 7L9 7L9 4L10 4L10 3L11 3L11 4L12 4L12 5L13 5L13 3L12 3L12 2L13 2L13 0ZM10 1L10 2L11 2L11 1ZM5 8L5 9L4 9L4 10L5 10L5 9L7 9L7 8ZM19 8L19 9L21 9L21 8ZM9 9L9 10L10 10L10 9ZM14 10L14 11L15 11L15 10ZM8 11L8 13L9 13L9 11ZM12 11L12 12L13 12L13 11ZM14 14L14 15L15 15L15 14ZM17 14L17 15L16 15L16 16L17 16L17 15L18 15L18 14ZM12 15L12 16L13 16L13 15ZM14 18L14 19L15 19L15 18ZM17 18L17 19L16 19L16 20L17 20L17 21L21 21L21 20L20 20L20 19L21 19L21 18ZM10 19L10 20L11 20L11 19ZM12 19L12 20L13 20L13 19ZM17 19L17 20L19 20L19 19ZM14 20L14 21L15 21L15 20ZM0 0L0 7L7 7L7 0ZM1 1L1 6L6 6L6 1ZM2 2L2 5L5 5L5 2ZM14 0L14 7L21 7L21 0ZM15 1L15 6L20 6L20 1ZM16 2L16 5L19 5L19 2ZM0 14L0 21L7 21L7 14ZM1 15L1 20L6 20L6 15ZM2 16L2 19L5 19L5 16Z" fill="#000000"/></g></g></svg>
